<?xml version="1.0" encoding="utf-8"?>
<!-- Generator: Adobe Illustrator 16.0.0, SVG Export Plug-In . SVG Version: 6.00 Build 0)  -->
<!DOCTYPE svg PUBLIC "-//W3C//DTD SVG 1.1//EN" "http://www.w3.org/Graphics/SVG/1.1/DTD/svg11.dtd">
<svg version="1.1" id="Layer_1" xmlns="http://www.w3.org/2000/svg" xmlns:xlink="http://www.w3.org/1999/xlink" x="0px" y="0px"
	 width="96px" height="96px" viewBox="0 0 96 96" enable-background="new 0 0 96 96" xml:space="preserve">
<path d="M84.349,39.161c-0.298-1.995-0.801-4.219-1.766-6.389c-0.899-2.222-2.238-4.345-3.779-6.393
	c-1.575-1.993-3.392-3.854-5.352-5.479c-1.956-1.597-4.033-3.051-6.12-4.269c-4.189-2.453-8.415-4.21-12.218-5.568
	c-1.918-0.682-3.713-1.277-5.398-1.825c-1.697-0.546-3.222-1.046-4.658-1.55c-1.387-0.513-2.699-1.01-3.809-1.561
	c-0.576-0.264-1.109-0.544-1.586-0.829c0,0-4.685-2.498-4.389-2.409l0.049,54.336c-1.061-0.151-2.141-0.25-3.252-0.25
	c-11.377,0-20.602,8.198-20.602,18.315s9.225,18.317,20.602,18.317s20.602-8.2,20.602-18.317c0-0.518,0.025-1.53,0.025-1.53V27.004
	c2.113,1.351,4.228,2.615,6.251,3.822c3.516,2.058,6.688,3.978,9.454,5.868c1.335,0.974,2.673,1.905,3.814,2.931
	c1.197,0.995,2.275,2.051,3.276,3.131c0.981,1.085,1.899,2.188,2.669,3.259c0.205,0.269,0.403,0.528,0.596,0.777
	c0.163,0.264,0.334,0.52,0.505,0.767c0.34,0.495,0.643,0.965,0.956,1.395c0.573,0.903,1.023,1.613,1.33,2.097
	c0.321,0.502,0.524,0.778,0.524,0.778s0.168-0.28,0.424-0.821c0.229-0.54,0.662-1.351,1.016-2.418
	c0.17-0.535,0.316-1.132,0.482-1.799c0.193-0.672,0.298-1.396,0.38-2.188C84.587,43.015,84.585,41.186,84.349,39.161z"/>
</svg>
