<?xml version="1.0" encoding="iso-8859-1"?>
<!-- Generator: Adobe Illustrator 16.0.0, SVG Export Plug-In . SVG Version: 6.00 Build 0)  -->
<!DOCTYPE svg PUBLIC "-//W3C//DTD SVG 1.1//EN" "http://www.w3.org/Graphics/SVG/1.1/DTD/svg11.dtd">
<svg version="1.1" id="Layer_1" xmlns="http://www.w3.org/2000/svg" xmlns:xlink="http://www.w3.org/1999/xlink" x="0px" y="0px"
	 width="26.737px" height="31.972px" viewBox="0 0 26.737 31.972" style="enable-background:new 0 0 26.737 31.972;"
	 xml:space="preserve">
<path d="M26.737,3.528L26.704,0L8.783,3.322l0.018,1.945H8.799v17.657c-0.935-0.872-2.188-1.412-3.569-1.412
	C2.342,21.513,0,23.854,0,26.741c0,2.89,2.342,5.23,5.229,5.23c2.631,0,4.801-1.942,5.169-4.47h0.062V9.212l14.519-2.663v12.992
	c-0.936-0.874-2.188-1.412-3.568-1.412c-2.89,0-5.232,2.34-5.232,5.229s2.343,5.23,5.232,5.23c2.629,0,4.799-1.942,5.168-4.471
	h0.062V3.547L26.737,3.528z M24.979,5.584L10.46,8.248V6.546l14.519-2.691V5.584z"/>
<g>
</g>
<g>
</g>
<g>
</g>
<g>
</g>
<g>
</g>
<g>
</g>
<g>
</g>
<g>
</g>
<g>
</g>
<g>
</g>
<g>
</g>
<g>
</g>
<g>
</g>
<g>
</g>
<g>
</g>
</svg>
