<?xml version="1.0" encoding="utf-8"?>
<!-- Generator: Adobe Illustrator 16.0.0, SVG Export Plug-In . SVG Version: 6.00 Build 0)  -->
<!DOCTYPE svg PUBLIC "-//W3C//DTD SVG 1.1//EN" "http://www.w3.org/Graphics/SVG/1.1/DTD/svg11.dtd">
<svg version="1.1" id="Layer_1" xmlns="http://www.w3.org/2000/svg" xmlns:xlink="http://www.w3.org/1999/xlink" x="0px" y="0px"
	 width="126px" height="126px" viewBox="0 0 126 126" enable-background="new 0 0 126 126" xml:space="preserve">
<path stroke="#6D6E70" stroke-width="0" stroke-linecap="round" stroke-linejoin="round" d="M100.516,100.512
	c20.686-20.684,20.684-54.34,0.002-75.023C79.828,4.799,46.17,4.799,25.486,25.483C4.799,46.17,4.801,79.828,25.488,100.517
	C46.17,121.201,79.828,121.201,100.516,100.512z M31.273,31.27c17.492-17.492,45.959-17.494,63.457,0.003
	c17.494,17.493,17.492,45.962-0.002,63.455s-45.963,17.495-63.455,0.003C13.775,77.232,13.777,48.764,31.273,31.27z M54.479,74.871
	v2.65h6.043v-2.65c0-1.922,1.557-3.479,3.479-3.479c1.92,0,3.479,1.557,3.479,3.479v2.65h5.543v-2.65
	c0-1.922,1.557-3.479,3.479-3.479c1.92,0,3.479,1.557,3.479,3.479v2.65h3.15c1.922,0,3.479,1.558,3.479,3.479
	s-1.557,3.479-3.479,3.479h-3.152v2.65c0,1.922-1.557,3.479-3.479,3.479c-1.92,0-3.479-1.557-3.479-3.479v-2.65h-5.543v2.65
	c0,1.922-1.557,3.479-3.479,3.479c-1.92,0-3.479-1.557-3.479-3.479v-2.65h-6.043v2.65c0,1.922-1.557,3.479-3.479,3.479
	c-1.92,0-3.479-1.557-3.479-3.479v-2.65h-2.648c-1.922,0-3.479-1.558-3.479-3.479s1.557-3.479,3.479-3.479h2.65v-2.65
	c0-1.922,1.557-3.479,3.479-3.479C52.92,71.393,54.479,72.949,54.479,74.871z M53.502,50.641c0,3.426-1.832,6.203-4.09,6.203
	s-4.09-2.777-4.09-6.203c0-3.424,1.832-6.201,4.09-6.201S53.502,47.217,53.502,50.641z M39.787,43.016
	c0.506-2.932,3.172-8.333,9.83-7.787c1.375,0.113,2.398,1.32,2.285,2.697c-0.111,1.375-1.301,2.4-2.695,2.287
	c-3.697-0.312-4.422,3.246-4.492,3.652c-0.211,1.217-1.268,2.075-2.461,2.075c-0.141,0-0.285-0.013-0.428-0.036
	C40.465,45.669,39.553,44.376,39.787,43.016z M73.439,50.641c0-3.424,1.832-6.201,4.09-6.201s4.09,2.777,4.09,6.201
	c0,3.426-1.832,6.203-4.09,6.203S73.439,54.066,73.439,50.641z M75.039,37.926c-0.113-1.377,0.91-2.584,2.285-2.697
	c6.658-0.546,9.324,4.855,9.83,7.787c0.234,1.36-0.678,2.653-2.039,2.889c-0.143,0.023-0.287,0.036-0.428,0.036
	c-1.193,0-2.25-0.858-2.461-2.075c-0.07-0.406-0.795-3.964-4.492-3.652C76.34,40.326,75.15,39.301,75.039,37.926z"/>
</svg>
